<?xml version="1.0" encoding="UTF-8" standalone="no"?>
<svg
   width="120"
   height="100"
   version="1.1"
   viewBox="0 0 31.75 26.46"
   id="svg19"
   xmlns="http://www.w3.org/2000/svg"
   xmlns:svg="http://www.w3.org/2000/svg">
  <defs
     id="defs7">
    <radialGradient
       id="radialGradient2226"
       cx="0"
       cy="0"
       r="1"
       gradientTransform="matrix(1.543 0 0 1.543 -48.9 99.55)"
       gradientUnits="userSpaceOnUse">
      <stop
         stop-color="#0014A5"
         offset=".02"
         id="stop2" />
      <stop
         stop-color="#2859E9"
         offset="1"
         id="stop4" />
    </radialGradient>
  </defs>
  <g
     transform="matrix(4.42 0 0 4.42 232 -426.7)"
     style="stroke-width:.2263"
     id="g17">
    <path
       d="m-49.28 96.98c-0.2381 0.2857-0.4101 0.6244-0.5212 0.9895-0.06349-0.06614-0.1376-0.1247-0.2249-0.1693-0.0026 0-0.0053-0.0026-0.0076-0.0026-0.0291-0.01588-0.05854-0.0291-0.09028-0.03969-0.02646-0.01058-0.05556-0.02117-0.08731-0.0291-0.04498-0.01058-0.08995-0.01852-0.1399-0.02381-0.04233-0.0053-0.08466-0.0079-0.1296-0.0079h-1.191v-1.058h1.191c0.05556 0 0.1085 0.0026 0.1614 0.0053 0.05258 3e-3 0.1058 0.0079 0.1561 0.01356 0.04762 0.0053 0.09491 0.01323 0.1402 0.02116 0.1905 0.03439 0.3572 0.08731 0.508 0.1611 0.08435 0.03968 0.1611 0.08731 0.2355 0.1402z"
       fill="#2859e9"
       style="stroke-width:.05987"
       id="path9" />
    <path
       d="m-48.51 102.1c0.2381-0.2857 0.4101-0.6244 0.5212-0.9895 0.0635 0.0661 0.1376 0.1247 0.2249 0.1696 0.0026 0 0.0053 3e-3 0.0076 3e-3 0.0291 0.0159 0.05853 0.0291 0.09028 0.0397 0.02646 0.0106 0.05556 0.0212 0.08731 0.0291 0.04498 0.0106 0.08996 0.0185 0.1399 0.0238 0.04233 5e-3 0.08467 8e-3 0.1296 8e-3h1.191v1.058h-1.191c-0.05556 0-0.1085-3e-3 -0.1614-5e-3 -0.05257-3e-3 -0.1058-8e-3 -0.1561-0.0136-0.04763-5e-3 -0.09493-0.0132-0.1402-0.0211-0.1905-0.0344-0.3572-0.0873-0.508-0.1614-0.08432-0.0397-0.1611-0.0873-0.2355-0.1402z"
       fill="#2859e9"
       style="stroke-width:.05987"
       id="path11" />
    <path
       d="m-47.31 96.64c-1.778 0-2.116 1.588-2.116 2.381h-1.058c-1.058 0-1.72 0.9261-1.72 1.72 0 0.7937 0.6615 1.719 1.72 1.719 1.778 0 2.117-1.587 2.117-2.381h1.058c1.058 0 1.72-0.9261 1.72-1.72 0-0.7937-0.6615-1.72-1.72-1.72zm0 1.058c0.5291 0 0.6615 0.3969 0.6615 0.6614 0 0.2646-0.132 0.6615-0.6744 0.6615h-1.045s-4.37e-4 -1.323 1.058-1.323zm-3.162 2.381h1.045s-6.1e-5 1.322-1.058 1.322c-0.5291 0-0.6615-0.3964-0.6615-0.661 0-0.2646 0.132-0.6614 0.6744-0.6614z"
       style="fill:url(#radialGradient2226);stroke-width:.05987"
       id="path13" />
    <path
       d="m-50.48 99.02c-0.7682 0-1.327 0.4877-1.576 1.059h1.564c0.0083-2e-4 0.01633-5.2e-4 0.02481-5.2e-4h3.162c0.7678 0 1.327-0.4876 1.576-1.058h-1.589z"
       style="fill:#2859e9;stroke-width:.05987"
       id="path15" />
  </g>
</svg>
