<svg width="275" height="389" viewBox="0 0 275 389" fill="none" xmlns="http://www.w3.org/2000/svg">
<rect width="275" height="388.929" fill="white"/>
<rect x="32" y="30" width="70" height="6" fill="#E0E0E0"/>
<rect x="32" y="50" width="213" height="6" fill="#E0E0E0"/>
<rect x="32" y="62" width="180" height="6" fill="#E0E0E0"/>
<rect x="32" y="74" width="201" height="6" fill="#E0E0E0"/>
<rect x="32" y="86" width="213" height="6" fill="#E0E0E0"/>
<rect x="32" y="98" width="201" height="6" fill="#E0E0E0"/>
<rect x="44" y="110" width="201" height="6" fill="#E0E0E0"/>
<rect x="32" y="122" width="213" height="6" fill="#E0E0E0"/>
<rect x="32" y="134" width="180" height="6" fill="#E0E0E0"/>
<rect x="32" y="146" width="213" height="6" fill="#E0E0E0"/>
<rect x="32" y="158" width="213" height="6" fill="#E0E0E0"/>
<rect x="32" y="170" width="201" height="6" fill="#E0E0E0"/>
<rect x="32" y="182" width="213" height="6" fill="#E0E0E0"/>
<rect x="32" y="194" width="213" height="6" fill="#E0E0E0"/>
<rect x="44" y="206" width="201" height="6" fill="#E0E0E0"/>
<rect x="32" y="218" width="213" height="6" fill="#E0E0E0"/>
<rect x="32" y="230" width="213" height="6" fill="#E0E0E0"/>
<rect x="32" y="242" width="180" height="6" fill="#E0E0E0"/>
<rect x="32" y="254" width="213" height="6" fill="#E0E0E0"/>
<rect x="32" y="266" width="213" height="6" fill="#E0E0E0"/>
<rect x="32" y="278" width="213" height="6" fill="#E0E0E0"/>
<rect x="32" y="290" width="201" height="6" fill="#E0E0E0"/>
<rect x="44" y="302" width="201" height="6" fill="#E0E0E0"/>
<rect x="32" y="314" width="213" height="6" fill="#E0E0E0"/>
<rect x="32" y="326" width="213" height="6" fill="#E0E0E0"/>
<rect x="32" y="338" width="201" height="6" fill="#E0E0E0"/>
<rect x="179" y="357" width="54" height="6" fill="#E0E0E0"/>
</svg>
