<svg width="24" height="24" viewBox="0 0 24 24" fill="none" xmlns="http://www.w3.org/2000/svg">
<path d="M0 4C0 1.79086 1.79086 0 4 0H20C22.2091 0 24 1.79086 24 4V20C24 22.2091 22.2091 24 20 24H4C1.79086 24 0 22.2091 0 20V4Z" fill="#E9E9ED"/>
<path d="M6.45008 13.734C5.95008 13.734 5.52786 13.5618 5.18341 13.2173C4.83897 12.8729 4.66675 12.4507 4.66675 11.9507C4.66675 11.4507 4.83897 11.0284 5.18341 10.684C5.52786 10.3395 5.95008 10.1673 6.45008 10.1673V8.11732C6.45008 7.85065 6.55008 7.61732 6.75008 7.41732C6.95008 7.21732 7.18341 7.11732 7.45008 7.11732H10.2167C10.2167 6.61732 10.389 6.1951 10.7334 5.85065C11.0779 5.50621 11.5001 5.33398 12.0001 5.33398C12.5001 5.33398 12.9223 5.50621 13.2667 5.85065C13.6112 6.1951 13.7834 6.61732 13.7834 7.11732H16.5501C16.8167 7.11732 17.0501 7.21732 17.2501 7.41732C17.4501 7.61732 17.5501 7.85065 17.5501 8.11732V10.1673C18.0501 10.1673 18.4723 10.3395 18.8167 10.684C19.1612 11.0284 19.3334 11.4507 19.3334 11.9507C19.3334 12.4507 19.1612 12.8729 18.8167 13.2173C18.4723 13.5618 18.0501 13.734 17.5501 13.734V17.0007C17.5501 17.2673 17.4501 17.5007 17.2501 17.7007C17.0501 17.9007 16.8167 18.0007 16.5501 18.0007H7.45008C7.18341 18.0007 6.95008 17.9007 6.75008 17.7007C6.55008 17.5007 6.45008 17.2673 6.45008 17.0007V13.734ZM9.71675 12.0673C9.90564 12.0673 10.064 12.0034 10.1917 11.8757C10.3195 11.7479 10.3834 11.5895 10.3834 11.4007C10.3834 11.2118 10.3195 11.0534 10.1917 10.9257C10.064 10.7979 9.90564 10.734 9.71675 10.734C9.52786 10.734 9.36953 10.7979 9.24175 10.9257C9.11397 11.0534 9.05008 11.2118 9.05008 11.4007C9.05008 11.5895 9.11397 11.7479 9.24175 11.8757C9.36953 12.0034 9.52786 12.0673 9.71675 12.0673ZM14.2834 12.0673C14.4723 12.0673 14.6306 12.0034 14.7584 11.8757C14.8862 11.7479 14.9501 11.5895 14.9501 11.4007C14.9501 11.2118 14.8862 11.0534 14.7584 10.9257C14.6306 10.7979 14.4723 10.734 14.2834 10.734C14.0945 10.734 13.9362 10.7979 13.8084 10.9257C13.6806 11.0534 13.6167 11.2118 13.6167 11.4007C13.6167 11.5895 13.6806 11.7479 13.8084 11.8757C13.9362 12.0034 14.0945 12.0673 14.2834 12.0673ZM9.20008 15.2507H14.8001V14.2507H9.20008V15.2507ZM7.45008 17.0007H16.5501V8.11732H7.45008V17.0007ZM7.45008 17.0007V8.11732V17.0007Z" fill="#424547"/>
</svg>
