<svg width="24" height="24" viewBox="0 0 24 24" fill="none" xmlns="http://www.w3.org/2000/svg">
<path d="M0 4C0 1.79086 1.79086 0 4 0H20C22.2091 0 24 1.79086 24 4V20C24 22.2091 22.2091 24 20 24H4C1.79086 24 0 22.2091 0 20V4Z" fill="#A6E4F8"/>
<path fill-rule="evenodd" clip-rule="evenodd" d="M4.66675 5.66601C4.66675 5.11373 5.11446 4.66602 5.66675 4.66602H10.3334C10.8857 4.66602 11.3334 5.11373 11.3334 5.66602V7.33268H13.1133V6.33268L16.0001 4.66602L18.8868 6.33268V9.66602L16.6667 10.9478V12.7327C18.1882 13.0415 19.3334 14.3867 19.3334 15.9993C19.3334 17.8403 17.841 19.3327 16.0001 19.3327C14.1591 19.3327 12.6667 17.8403 12.6667 15.9993C12.6667 14.3867 13.8119 13.0415 15.3334 12.7327V10.9478L13.1133 9.66602V8.66602H11.3334V10.3327C11.3334 10.885 10.8857 11.3327 10.3334 11.3327H8.66675V13.3327L11.3334 15.9993L8.00008 19.3327L4.66675 15.9993L7.33341 13.3327V11.3327H5.66675C5.11446 11.3327 4.66675 10.885 4.66675 10.3327V5.66601Z" fill="#007BAF"/>
</svg>
