<svg width="24" height="24" viewBox="0 0 24 24" fill="none" xmlns="http://www.w3.org/2000/svg">
<path fill-rule="evenodd" clip-rule="evenodd" d="M4 23C2.34 23 1 21.66 1 20V4C1 2.34 2.34 1 4 1H20C21.66 1 23 2.34 23 4V20C23 21.66 21.66 23 20 23H4ZM4 3C3.45 3 3 3.45 3 4V20C3 20.55 3.45 21 4 21H20C20.55 21 21 20.55 21 20V4C21 3.45 20.55 3 20 3H4Z" fill="currentColor"/>
<path fill-rule="evenodd" clip-rule="evenodd" d="M3.6 19.3313C3.02791 19.7603 3 19.9999 3 20H1C1 19.0001 1.72209 18.2397 2.4 17.7313C3.13009 17.1837 4.10181 16.7063 5.14888 16.3137C7.24453 15.5278 9.86353 15 12 15C14.1365 15 16.7555 15.5278 18.8511 16.3137C19.8982 16.7063 20.8699 17.1837 21.6 17.7313C22.2779 18.2397 23 19.0001 23 20H21C21 19.9999 20.9721 19.7603 20.4 19.3313C19.8801 18.9413 19.1018 18.5437 18.1489 18.1863C16.2445 17.4722 13.8635 17 12 17C10.1365 17 7.75547 17.4722 5.85112 18.1863C4.89819 18.5437 4.11991 18.9413 3.6 19.3313Z" fill="currentColor"/>
<path fill-rule="evenodd" clip-rule="evenodd" d="M12 12C13.1046 12 14 11.1046 14 10C14 8.89543 13.1046 8 12 8C10.8954 8 10 8.89543 10 10C10 11.1046 10.8954 12 12 12ZM12 14C14.2091 14 16 12.2091 16 10C16 7.79086 14.2091 6 12 6C9.79086 6 8 7.79086 8 10C8 12.2091 9.79086 14 12 14Z" fill="currentColor"/>
</svg>
