<svg width="24" height="24" viewBox="0 0 24 24" fill="none" xmlns="http://www.w3.org/2000/svg">
<path fill-rule="evenodd" clip-rule="evenodd" d="M16.0637 3.10019C16.3392 2.9666 16.6608 2.9666 16.9363 3.10019L22.4363 5.76685C22.7811 5.93402 23 6.2835 23 6.66667V13.3333C23 13.7165 22.7811 14.066 22.4363 14.2331L16.9363 16.8998C16.6608 17.0334 16.3392 17.0334 16.0637 16.8998L14 15.8992V18.3333C14 18.7165 13.7811 19.066 13.4363 19.2331L7.92984 21.9029C7.65412 22.0366 7.33234 22.0365 7.0567 21.9026L1.56314 19.2346C1.21868 19.0674 1 18.7181 1 18.3351L1 11.6667C1 11.2835 1.21895 10.934 1.56373 10.7669L7.06373 8.10019C7.33924 7.9666 7.66076 7.9666 7.93628 8.10019L10 9.10078V6.66667C10 6.2835 10.2189 5.93402 10.5637 5.76685L16.0637 3.10019ZM10 11.3235L8.5 10.5962L8.5 15.0402L12 16.7371L12 14.9295L10.5637 14.2331C10.2189 14.066 10 13.7165 10 13.3333V11.3235ZM14 13.6765V11.6667C14 11.2835 13.7811 10.934 13.4363 10.7669L12 10.0705V8.26286L15.5 9.95983V14.4038L14 13.6765ZM17.5 14.4038L21 12.7068V8.26286L17.5 9.95983V14.4038ZM16.5 8.22199L19.7079 6.66667L16.5 5.11134L13.2921 6.66667L16.5 8.22199ZM10.7079 18.3333L7.5 16.778L4.29667 18.3311L6.94543 19.6091L6.94721 19.6056L7.5068 19.8854L10.7079 18.3333ZM3 16.7371L3 12.2932L6.5 10.5962L6.5 15.0402L3 16.7371Z" fill="currentColor"/>
</svg>
