<svg width="24" height="24" viewBox="0 0 24 24" fill="none" xmlns="http://www.w3.org/2000/svg">
<path fill-rule="evenodd" clip-rule="evenodd" d="M3 13V20H5V13H3ZM2 11C1.44772 11 1 11.4477 1 12V21C1 21.5523 1.44772 22 2 22H6C6.55228 22 7 21.5523 7 21V12C7 11.4477 6.55228 11 6 11H2Z" fill="currentColor"/>
<path fill-rule="evenodd" clip-rule="evenodd" d="M11 17V20H13V17H11ZM10 15C9.44772 15 9 15.4477 9 16V21C9 21.5523 9.44772 22 10 22H14C14.5523 22 15 21.5523 15 21V16C15 15.4477 14.5523 15 14 15H10Z" fill="currentColor"/>
<path fill-rule="evenodd" clip-rule="evenodd" d="M19 5V20H21V5H19ZM18 3C17.4477 3 17 3.44771 17 4V21C17 21.5523 17.4477 22 18 22H22C22.5523 22 23 21.5523 23 21V4C23 3.44772 22.5523 3 22 3H18Z" fill="currentColor"/>
<path fill-rule="evenodd" clip-rule="evenodd" d="M3 4V7H5V4H3ZM2 2C1.44772 2 1 2.44772 1 3V8C1 8.55228 1.44772 9 2 9H6C6.55228 9 7 8.55228 7 8V3C7 2.44772 6.55228 2 6 2H2Z" fill="currentColor"/>
<path fill-rule="evenodd" clip-rule="evenodd" d="M11 9V11H13V9H11ZM10 7C9.44772 7 9 7.44772 9 8V12C9 12.5523 9.44772 13 10 13H14C14.5523 13 15 12.5523 15 12V8C15 7.44772 14.5523 7 14 7H10Z" fill="currentColor"/>
</svg>
